<svg width="70" height="70" viewBox="0 0 70 70" fill="none" xmlns="http://www.w3.org/2000/svg">
<path d="M14.8203 0H17.9648V3.11719H20.8633V0H24.0078V9.43359H20.8633V6.28906H17.9922V9.43359H14.8203M28.1641 3.14453H25.3887V0H34.0977V3.14453H31.3086V9.43359H28.1641M35.4785 0H38.7734L40.7969 3.32227L42.8203 0H46.1152V9.43359H42.9707V4.75781L40.7695 8.14844L38.5684 4.75781V9.43359H35.4785M47.6738 0H50.8184V6.31641H55.2754V9.43359H47.6738" fill="black"/>
<path d="M14.7109 64.3945L10.1992 13.7539H59.8008L55.2891 64.3672L34.959 70" fill="#E44D26"/>
<path d="M35 65.6934V17.9102H55.2754L51.4062 61.1133" fill="#F16529"/>
<path d="M19.4141 24.1035H35V30.3105H26.2227L26.7969 36.668H35V42.8613H21.1094M21.3828 45.9785H27.6172L28.0547 50.9414L35 52.8008V59.2812L22.2578 55.7266" fill="#EBEBEB"/>
<path d="M50.5312 24.1035H34.9727V30.3105H49.957M49.3965 36.668H34.9727V42.875H42.6289L41.9043 50.9414L34.9727 52.8008V59.2539L47.6875 55.7266" fill="white"/>
</svg>
